ply
format ascii 1.0
comment VCGLIB generated
element vertex 517
property float x
property float y
property float z
element face 879
property list uchar int vertex_indices
end_header
-10.9127 -290.884 -1389.9 
-10.1041 -289.728 -1390.54 
-9.9367 -288.921 -1390.48 
-9.998 -288.318 -1390.25 
-13.7688 -286.382 -1390.77 
-9.6966 -290.318 -1389.64 
-10.2589 -287.507 -1389.55 
-14.7647 -285.546 -1389.4 
-12.7462 -286.265 -1389.23 
-7.966401 -289.034 -1388.16 
-10.2898 -286.371 -1387.11 
-11.2451 -291.949 -1386.97 
-8.1743 -289.518 -1388.36 
-8.1787 -288.341 -1388.02 
-8.4054 -290.39 -1387.58 
-8.3568 -287.482 -1387.12 
-14.1621 -285.232 -1386.3 
-12.6303 -285.911 -1387.2 
-8.4534 -291.169 -1385.51 
-6.7831 -289.634 -1385.66 
-7.2478 -287.944 -1386.23 
-6.662499 -290.355 -1384.66 
-6.317801 -288.895 -1385.06 
-13.1638 -293.155 -1384.97 
-6.4813 -288.252 -1385 
-6.6791 -287.551 -1384.33 
-10.8656 -292.968 -1383.73 
-8.5862 -291.817 -1384.02 
-7.0029 -291.047 -1384.1 
-5.761099 -289.508 -1384.21 
-4.302538 -289.0115 -1382.369 
-4.717212 -288.2017 -1382.218 
-7.7124 -292.413 -1381.95 
-4.53899 -291.8702 -1380.8 
-4.1782 -290.05 -1382.4 
-3.828598 -291.0975 -1381.399 
-3.291045 -289.9407 -1381.703 
-9.4277 -293.207 -1380.72 
-1.236373 -290.3469 -1380.382 
-1.184537 -290.9557 -1380.223 
-1.609377 -289.7126 -1380.588 
-9.1126 -293.821 -1378.66 
-5.24549 -292.9714 -1379.129 
-1.21755 -291.9332 -1379.561 
-2.318329 -292.6462 -1378.917 
0.9960347 -291.6971 -1378.597 
1.282236 -290.7164 -1378.667 
-6.640778 -294.2594 -1376.834 
1.657839 -292.4975 -1377.65 
1.199021 -289.4063 -1378.119 
-0.6535434 -293.0722 -1377.807 
1.309005 -293.3514 -1376.709 
3.163586 -291.0199 -1377.24 
0.8228937 -287.9205 -1377.077 
-3.210235 -294.1818 -1376.202 
3.331894 -291.6349 -1377.128 
2.615019 -292.9503 -1376.793 
3.190214 -289.8883 -1376.774 
0.4799526 -286.888 -1375.98 
-5.616475 -294.8893 -1375.343 
4.655111 -292.698 -1376.327 
-1.922756 -294.9051 -1374.388 
2.830943 -293.7667 -1375.929 
6.010326 -291.6879 -1375.937 
2.902591 -288.582 -1375.563 
-3.83922 -295.2749 -1373.867 
3.926469 -293.8831 -1375.544 
6.770913 -292.581 -1375.538 
6.191458 -290.8498 -1375.6 
-0.2774222 -294.9874 -1373.876 
6.98208 -293.6312 -1374.64 
6.016424 -289.8559 -1375.002 
4.730941 -288.8967 -1374.565 
3.032674 -287.8762 -1374.244 
7.940402 -291.1393 -1375.145 
8.635765 -292.0991 -1375.03 
7.745942 -290.0545 -1374.536 
1.278357 -296.2586 -1371.844 
5.578506 -294.7531 -1373.39 
9.850295 -292.7755 -1374.476 
10.09938 -291.036 -1374.872 
-1.598219 -296.2216 -1372.214 
11.92123 -291.848 -1374.52 
11.98374 -290.8756 -1374.613 
10.18561 -289.9393 -1374.224 
7.597377 -288.8569 -1373.371 
3.768681 -287.7203 -1373.173 
5.02458 -287.9028 -1372.722 
1.123525 -285.35 -1372.057 
8.108671 -294.5686 -1372.949 
9.777905 -293.6185 -1373.664 
13.8348 -290.7557 -1374.645 
3.003922 -296.9615 -1370.221 
12.19478 -292.9041 -1373.817 
15.05655 -291.6705 -1374.377 
15.80796 -290.5186 -1374.803 
11.94061 -289.6834 -1373.972 
15.76768 -289.6755 -1374.638 
9.779763 -288.3577 -1372.606 
3.108055 -286.1072 -1371.225 
5.403806 -295.9803 -1371.469 
9.815102 -294.5713 -1372.267 
14.57738 -292.4643 -1373.835 
17.81844 -290.8261 -1374.509 
19.01896 -289.9731 -1374.729 
18.48649 -289.507 -1374.761 
13.66097 -288.981 -1373.63 
17.35261 -288.7745 -1374.34 
4.258279 -286.674 -1371.26 
12.62774 -293.6923 -1372.707 
18.7406 -291.0881 -1374.175 
20.2414 -288.9682 -1374.689 
11.49073 -287.7479 -1371.98 
7.141515 -286.4542 -1370.184 
1.765437 -284.2055 -1369.232 
16.29238 -292.813 -1373.007 
21.56573 -289.5696 -1374.524 
22.98969 -288.5199 -1374.172 
14.34258 -288.2012 -1372.608 
18.37517 -288.1348 -1373.686 
20.23994 -288.0223 -1373.995 
10.25065 -286.5423 -1370.51 
4.683754 -285.8556 -1369.7 
21.41866 -290.7953 -1373.79 
12.78311 -295.0237 -1370.436 
18.6765 -292.4698 -1372.407 
23.61949 -289.4184 -1374.05 
22.75515 -287.5781 -1373.477 
24.21599 -287.609 -1373.656 
17.89245 -287.8011 -1372.261 
12.54442 -286.6542 -1370.479 
3.664431 -284.8013 -1368.525 
22.69464 -291.3206 -1372.512 
23.86853 -290.2824 -1373.445 
25.38259 -288.8781 -1373.68 
25.48458 -287.9284 -1373.87 
15.97038 -287.2431 -1370.618 
19.11128 -287.217 -1371.448 
21.34329 -287.1715 -1372.637 
5.422554 -285.3221 -1368.73 
14.92318 -294.6695 -1369.956 
19.42764 -292.8477 -1371.154 
27.24979 -288.4394 -1373.327 
27.83403 -287.044 -1373.44 
23.82064 -287.2052 -1373.108 
26.09674 -286.5435 -1373.173 
27.50551 -286.4724 -1373.368 
10.71438 -285.1961 -1368.65 
8.536489 -284.99 -1368.565 
24.80829 -290.6172 -1372.396 
26.11583 -289.6915 -1372.786 
23.41985 -286.8413 -1372.084 
27.79099 -285.5888 -1372.793 
7.082042 -284.1603 -1367.242 
29.39277 -287.9006 -1372.594 
29.34117 -286.8774 -1372.962 
26.13988 -285.9803 -1372.28 
30.03946 -285.7085 -1372.709 
13.57506 -285.6026 -1368.033 
21.94613 -292.6291 -1370.473 
28.95424 -288.687 -1372.221 
17.62016 -286.4503 -1369.157 
20.61401 -286.8594 -1370.154 
23.31869 -286.2722 -1370.573 
30.30974 -285.0717 -1372.447 
19.32349 -293.9478 -1369.225 
29.37938 -289.3369 -1370.991 
30.6707 -286.7585 -1372.314 
27.38298 -285.0312 -1371.048 
28.4588 -284.743 -1372.021 
11.24314 -284.3349 -1366.723 
27.674 -290.3083 -1370.698 
21.52273 -286.1562 -1369.117 
32.01648 -285.1263 -1371.661 
16.37568 -285.5008 -1367.415 
24.23926 -285.888 -1369.519 
23.41588 -292.5684 -1369.13 
33.14987 -286.5204 -1370.708 
18.40469 -285.0403 -1366.784 
26.01841 -291.7729 -1369.097 
32.15729 -287.2341 -1371.001 
21.06145 -285.4287 -1367.558 
15.44511 -284.2029 -1365.746 
32.11762 -288.0182 -1370.253 
34.27093 -284.9909 -1370.555 
30.24025 -289.8836 -1369.165 
28.85044 -291.4102 -1367.332 
32.54676 -288.4518 -1369.138 
34.66711 -286.9681 -1369.274 
35.54099 -285.9496 -1369.369 
36.20665 -285.1539 -1369.189 
36.12409 -284.5407 -1369.248 
18.80552 -284.2003 -1365.264 
32.04572 -289.4863 -1367.825 
34.81347 -287.659 -1368.319 
38.25797 -285.537 -1367.589 
38.43016 -284.8198 -1367.775 
35.56036 -288.1404 -1366.692 
37.73017 -286.447 -1367.141 
31.71206 -290.4061 -1366.241 
34.82233 -289.3133 -1365.408 
29.33507 -292.1146 -1364.631 
32.46728 -290.7881 -1364.705 
36.73195 -288.4875 -1365.351 
38.31712 -286.7999 -1366.312 
42.02315 -285.8941 -1365.326 
42.70948 -285.0383 -1365.606 
37.72675 -288.8587 -1364.222 
34.35771 -290.9363 -1363.357 
36.07686 -290.1712 -1363.37 
37.21964 -289.4622 -1363.672 
42.94301 -286.2482 -1364.313 
43.43325 -287.8223 -1362.444 
43.98758 -285.2162 -1364.533 
45.1429 -284.3442 -1364.184 
39.11016 -288.9389 -1363.425 
34.56539 -292.2076 -1360.916 
38.31885 -289.6667 -1362.884 
45.82542 -285.3979 -1363.255 
46.80198 -284.1874 -1362.862 
38.64566 -290.5845 -1361.304 
41.96014 -288.8945 -1361.851 
42.17283 -289.5209 -1360.899 
47.82522 -286.1787 -1361.532 
47.7944 -285.2075 -1362.115 
48.03157 -284.1703 -1362.23 
43.9227 -288.3438 -1361.613 
47.80655 -283.1411 -1361.841 
47.35001 -287.494 -1360.51 
49.96666 -284.1804 -1361.355 
49.92889 -283.4233 -1361.418 
50.23892 -284.86 -1360.882 
44.65677 -289.0915 -1359.848 
41.30548 -290.8195 -1358.919 
49.64922 -285.9969 -1360.396 
51.77404 -283.5894 -1360.248 
47.79979 -288.1119 -1358.946 
52.63648 -284.2224 -1359.281 
53.47674 -282.9238 -1358.835 
44.34619 -290.1655 -1357.437 
52.8167 -285.4439 -1358.085 
47.72093 -288.8864 -1357.671 
50.12599 -287.2949 -1358.018 
54.01719 -282.4854 -1357.994 
54.10833 -284.1089 -1357.955 
53.61863 -281.7307 -1357.196 
53.05584 -285.9574 -1357.202 
54.85269 -283.6368 -1357.151 
54.67939 -282.5311 -1357.333 
41.68666 -291.6359 -1355.626 
46.62285 -289.9477 -1355.479 
54.7895 -285.4826 -1355.836 
55.12693 -284.4881 -1356.268 
54.93862 -282.2513 -1355.862 
52.88728 -282.0688 -1354.044 
53.93975 -286.4796 -1355.437 
50.65941 -288.5882 -1354.326 
51.05331 -288.0581 -1355.433 
55.68768 -282.9336 -1355.556 
54.23534 -282.0221 -1354.955 
55.86587 -284.1024 -1355.28 
56.29838 -283.9467 -1353.78 
56.2037 -282.8153 -1353.684 
53.32475 -287.7747 -1352.866 
55.14029 -286.4561 -1353.363 
56.061 -285.1425 -1353.697 
55.51648 -281.9591 -1352.957 
52.98156 -281.9246 -1351.714 
49.44675 -289.6882 -1352.367 
57.48618 -283.0562 -1352.336 
57.31424 -283.9973 -1352.67 
57.33112 -282.4516 -1351.884 
56.24015 -281.8448 -1352.046 
55.74433 -281.6206 -1350.552 
45.59967 -291.2361 -1351.635 
57.15244 -285.4228 -1352.053 
56.511 -286.4326 -1351.16 
59.4017 -284.4594 -1350.617 
59.20761 -283.5299 -1350.83 
57.20997 -282.0306 -1350.144 
53.46712 -288.3954 -1350.459 
58.00509 -285.6614 -1350.83 
58.95051 -282.8474 -1350.587 
58.44615 -282.1336 -1349.587 
54.33846 -281.51 -1348.355 
49.87249 -290.1718 -1350.015 
55.33603 -281.5428 -1348.797 
59.41165 -282.4604 -1349.199 
51.92173 -289.4789 -1349.696 
55.16205 -288.0661 -1349.109 
60.18317 -285.2463 -1349.244 
60.94174 -284.4516 -1349.141 
61.20165 -283.563 -1348.989 
60.57481 -282.8209 -1348.936 
60.50863 -285.9955 -1347.726 
56.00328 -281.8399 -1346.777 
58.18822 -281.8397 -1346.307 
54.79023 -281.4949 -1346.783 
61.76357 -283.7597 -1347.916 
61.79339 -283.0797 -1347.065 
60.93327 -282.5542 -1347.463 
59.25503 -282.2313 -1346.857 
52.83844 -289.6501 -1347.904 
61.61357 -285.2653 -1347.444 
55.34781 -281.2913 -1345.347 
57.84095 -287.8515 -1346.679 
62.35021 -284.5469 -1347.011 
62.38199 -283.7929 -1346.857 
59.38346 -281.5132 -1342.811 
54.7714 -280.9621 -1343.748 
56.78107 -288.4878 -1346.286 
61.51716 -286.432 -1345.892 
62.75186 -284.2969 -1345.692 
54.54776 -289.5346 -1345.152 
62.76486 -285.4834 -1345.325 
62.96307 -284.8033 -1345.245 
62.40752 -283.3808 -1344.744 
60.37657 -282.2765 -1344.739 
61.70359 -282.8256 -1344.397 
56.82856 -280.9792 -1343.038 
61.44297 -282.2898 -1342.852 
60.58191 -287.6331 -1344.035 
62.74303 -286.5876 -1344.069 
63.3963 -285.8928 -1344.139 
63.87125 -285.2155 -1344.005 
63.34633 -283.6246 -1343.684 
57.25412 -288.8745 -1344.409 
64.39909 -284.083 -1343.039 
56.64808 -280.0918 -1340.46 
60.15626 -280.288 -1339.445 
63.62455 -286.9419 -1342.454 
66.30086 -284.8504 -1341.219 
58.82764 -288.5593 -1342.675 
66.1 -284.1806 -1341.199 
63.92232 -282.9312 -1341.578 
63.65675 -287.3691 -1341.045 
65.48565 -286.1788 -1341.376 
66.0891 -285.4632 -1341.302 
66.4775 -283.3267 -1339.984 
57.51138 -279.2939 -1337.525 
61.79807 -280.1003 -1337.386 
61.76498 -288.2513 -1339.975 
65.92789 -286.8049 -1339.436 
67.91098 -284.1802 -1339.463 
66.74131 -282.6236 -1338.557 
60.22459 -279.3625 -1336.91 
68.86541 -284.9566 -1338.406 
64.84938 -281.084 -1336.665 
64.94437 -287.3855 -1339.096 
67.97435 -285.7848 -1338.698 
69.29162 -283.9293 -1337.827 
62.70778 -288.468 -1338.119 
68.70004 -282.8798 -1337.347 
68.47832 -286.4144 -1337.137 
67.87854 -281.3197 -1334.791 
63.49987 -279.2808 -1334.423 
66.06935 -287.7385 -1336.819 
70.24448 -285.4484 -1336.157 
70.60674 -283.4505 -1335.645 
68.34373 -287.132 -1335.626 
70.6497 -284.4379 -1336.166 
65.52312 -279.165 -1332.254 
65.17159 -288.2286 -1335.624 
70.87051 -283.0076 -1334.633 
71.06879 -285.935 -1333.927 
71.51997 -284.9259 -1334.43 
71.94931 -283.8817 -1333.73 
70.152 -281.44 -1332.027 
70.86298 -286.4413 -1332.856 
67.13031 -278.6145 -1330.199 
65.64049 -288.2552 -1333.813 
69.71207 -287.0575 -1332.53 
72.78883 -285.3604 -1331.908 
72.94454 -284.035 -1332.024 
72.26823 -282.6941 -1331.464 
68.13832 -278.5052 -1329.075 
70.03099 -280.0057 -1329.242 
74.5787 -284.6732 -1329.696 
68.84269 -287.8708 -1330.472 
73.56022 -286.1326 -1329.449 
74.70944 -283.6507 -1329.419 
73.85734 -282.1115 -1328.777 
72.10763 -280.7996 -1328.592 
70.07899 -279.1036 -1327.742 
74.76035 -285.2708 -1329.085 
74.95374 -281.8593 -1327.524 
76.18402 -283.0171 -1327.54 
74.28632 -286.4049 -1327.544 
77.61397 -283.888 -1326.44 
73.81779 -279.7996 -1326.245 
71.22317 -278.45 -1325.986 
75.87607 -285.7554 -1327.018 
77.43855 -284.8659 -1326.194 
70.64328 -287.6463 -1326.925 
76.04579 -279.6566 -1324.902 
70.34679 -287.9835 -1325.538 
73.67004 -287.0135 -1325.506 
78.65139 -282.6788 -1325.158 
78.39576 -281.5128 -1324.762 
74.32104 -277.2948 -1323.289 
77.04121 -286.0198 -1324.503 
79.33813 -285.2187 -1323.265 
80.07338 -283.042 -1324.064 
78.36411 -279.6012 -1323.533 
80.8945 -283.707 -1323.136 
74.61348 -286.9621 -1323.032 
80.59618 -284.3992 -1322.913 
81.44463 -281.3124 -1322.581 
77.99973 -277.4599 -1322.055 
77.64345 -286.1122 -1321.811 
79.86305 -277.4275 -1321.272 
82.68738 -279.7185 -1321.235 
73.3307 -287.7273 -1321.497 
78.93783 -285.7808 -1321.821 
83.23471 -282.4661 -1321.362 
83.79924 -281.1731 -1321.008 
82.33404 -284.7592 -1320.29 
84.1918 -282.9124 -1320.256 
84.87752 -279.8942 -1320.125 
80.25148 -275.5843 -1320.192 
84.81802 -281.9647 -1320.145 
83.63657 -276.4785 -1319.303 
77.86528 -286.6741 -1319.354 
81.48913 -285.6573 -1318.971 
85.01152 -282.9701 -1319.268 
86.33065 -278.7852 -1318.96 
82.30891 -273.5779 -1318.348 
88.19267 -280.2245 -1317.919 
85.52979 -276.2749 -1318.479 
80.06287 -286.296 -1318.037 
85.0653 -283.5369 -1318.254 
88.32378 -281.4556 -1317.44 
88.36176 -278.1769 -1317.782 
88.39811 -276.9836 -1317.605 
87.41698 -275.2065 -1317.535 
85.69254 -273.7531 -1317.564 
84.4213 -284.3952 -1316.798 
88.01613 -282.4806 -1316.819 
90.05636 -279.6648 -1316.615 
90.39376 -274.5012 -1316.73 
88.83993 -273.12 -1316.674 
86.37025 -271.1288 -1316.484 
90.47401 -277.7459 -1316.88 
92.25024 -274.8674 -1316.344 
92.25166 -272.4578 -1316.133 
90.2221 -271.3167 -1316.198 
88.01591 -269.5328 -1316.045 
82.95306 -285.0432 -1316.105 
90.74377 -280.2265 -1315.804 
93.61406 -276.9046 -1315.5 
92.94392 -276.0661 -1316.067 
95.57709 -274.1475 -1315.233 
94.70627 -273.0612 -1315.636 
94.20348 -270.567 -1315.558 
96.1974 -271.1131 -1315.04 
90.60787 -269.0872 -1315.612 
88.56962 -282.5468 -1315.658 
90.33672 -281.2171 -1315.342 
80.00063 -285.1944 -1314.549 
86.33932 -283.5658 -1315.374 
91.871 -279.7304 -1314.966 
95.15254 -276.2658 -1314.637 
96.61613 -274.1455 -1314.285 
97.60595 -271.196 -1314.212 
97.05096 -269.3737 -1314.347 
85.34274 -283.7099 -1314.714 
89.2412 -282.0514 -1314.313 
90.92543 -281.0561 -1314.283 
92.90385 -279.3337 -1313.994 
95.4187 -276.3684 -1314.003 
97.73887 -272.2809 -1313.584 
97.78251 -268.5342 -1313.432 
95.76176 -275.9021 -1313.224 
97.06734 -273.7534 -1313.069 
97.91 -271.2516 -1313.043 
84.07875 -283.3573 -1313.305 
88.08177 -282.0709 -1313.332 
91.23014 -280.587 -1312.903 
92.65731 -279.6544 -1312.912 
94.1952 -278.0611 -1312.8 
97.84821 -267.1476 -1312.196 
82.77194 -283.2592 -1312.136 
86.31582 -281.8866 -1312.134 
88.8399 -280.8725 -1311.886 
94.57161 -277.0318 -1312.099 
96.41201 -273.5595 -1312.07 
97.56052 -270.4714 -1312.104 
91.18767 -279.921 -1311.785 
92.89133 -278.7874 -1311.558 
95.21192 -274.9908 -1311.693 
96.22205 -271.1041 -1311.282 
97.2469 -267.2051 -1311.411 
93.15561 -278.1148 -1311.197 
94.58031 -274.1341 -1311.025 
92.93625 -273.5428 -1310.213 
96.47569 -268.9778 -1311.15 
96.44044 -266.4919 -1310.891 
88.33195 -279.7198 -1310.482 
91.06025 -278.6195 -1310.477 
92.81696 -276.4807 -1310.176 
93.32851 -270.68 -1309.975 
84.60355 -280.3432 -1309.304 
91.21312 -277.46 -1309.879 
93.0453 -267.1163 -1309.942 
88.60571 -278.0014 -1309.586 
90.65789 -276.2551 -1309.548 
90.41805 -273.6771 -1309.371 
89.12387 -271.7668 -1308.749 
91.19427 -269.8528 -1309.373 
90.52741 -266.6252 -1309.112 
88.43115 -265.1046 -1308.468 
88.54526 -275.6138 -1309.065 
88.09811 -273.9572 -1308.771 
88.52199 -269.1039 -1308.644 
86.7465 -273.0574 -1308.541 
87.26996 -270.7646 -1308.45 
86.33466 -268.4572 -1308.295 
3 1 2 9 
3 9 2 3 
3 6 4 10 
3 1 12 5 
3 1 9 12 
3 9 3 13 
3 3 6 13 
3 8 10 4 
3 0 14 11 
3 0 5 14 
3 5 12 14 
3 13 6 15 
3 8 16 17 
3 7 16 8 
3 11 14 18 
3 12 19 14 
3 12 9 19 
3 9 13 20 
3 13 15 20 
3 6 10 15 
3 8 17 10 
3 14 19 21 
3 22 19 9 
3 22 9 20 
3 18 14 21 
3 22 20 24 
3 20 25 24 
3 23 11 26 
3 11 18 26 
3 26 18 27 
3 27 18 28 
3 18 21 28 
3 29 21 19 
3 19 22 29 
3 29 22 30 
3 30 22 24 
3 30 24 31 
3 24 25 31 
3 26 27 32 
3 27 28 33 
3 21 34 28 
3 21 29 34 
3 29 30 34 
3 27 33 32 
3 28 34 35 
3 34 30 36 
3 37 26 32 
3 28 35 33 
3 34 36 35 
3 36 38 35 
3 38 39 35 
3 38 36 40 
3 36 30 40 
3 37 32 41 
3 33 42 32 
3 39 33 35 
3 43 33 39 
3 44 33 43 
3 32 42 41 
3 43 39 45 
3 39 46 45 
3 39 38 46 
3 47 41 42 
3 44 42 33 
3 43 45 48 
3 50 44 43 
3 48 50 43 
3 51 50 48 
3 45 46 52 
3 42 44 54 
3 45 55 48 
3 45 52 55 
3 50 54 44 
3 56 51 48 
3 52 46 57 
3 46 49 57 
3 49 53 57 
3 42 59 47 
3 54 59 42 
3 48 60 56 
3 48 55 60 
3 61 54 50 
3 56 62 51 
3 56 60 62 
3 60 55 63 
3 55 52 63 
3 57 53 64 
3 54 65 59 
3 54 61 65 
3 61 50 51 
3 62 60 66 
3 60 63 67 
3 63 52 68 
3 52 57 68 
3 53 58 64 
3 61 51 69 
3 62 69 51 
3 60 70 66 
3 60 67 70 
3 68 57 71 
3 57 64 72 
3 64 58 73 
3 67 63 74 
3 67 74 75 
3 63 68 74 
3 71 76 68 
3 68 76 74 
3 57 72 71 
3 73 72 64 
3 77 69 62 
3 77 62 66 
3 66 70 78 
3 67 79 70 
3 67 75 79 
3 75 74 80 
3 81 65 61 
3 81 61 69 
3 77 66 78 
3 75 82 79 
3 75 80 82 
3 83 82 80 
3 74 84 80 
3 76 84 74 
3 76 71 85 
3 71 72 85 
3 72 73 86 
3 86 87 72 
3 85 72 87 
3 70 89 78 
3 90 89 70 
3 70 79 90 
3 91 82 83 
3 80 84 83 
3 76 85 84 
3 81 69 77 
3 92 77 78 
3 79 93 90 
3 79 82 93 
3 94 93 82 
3 94 82 91 
3 95 94 91 
3 83 84 96 
3 83 96 91 
3 96 97 91 
3 95 91 97 
3 84 85 98 
3 98 96 84 
3 88 99 73 
3 99 86 73 
3 100 92 78 
3 90 101 89 
3 101 90 93 
3 93 94 102 
3 95 103 94 
3 95 104 103 
3 95 97 104 
3 105 104 97 
3 96 106 97 
3 106 107 97 
3 107 105 97 
3 108 86 99 
3 87 86 108 
3 89 100 78 
3 102 109 93 
3 94 110 102 
3 94 103 110 
3 104 105 111 
3 105 107 111 
3 98 112 96 
3 112 106 96 
3 87 113 85 
3 99 88 114 
3 101 93 109 
3 109 102 115 
3 102 110 115 
3 103 104 110 
3 104 116 110 
3 104 111 116 
3 111 117 116 
3 106 112 118 
3 106 118 107 
3 118 119 107 
3 107 120 111 
3 119 120 107 
3 121 112 98 
3 113 98 85 
3 122 87 108 
3 115 110 123 
3 110 116 123 
3 111 120 117 
3 98 113 121 
3 122 113 87 
3 108 99 122 
3 115 123 125 
3 116 126 123 
3 116 117 126 
3 117 120 127 
3 127 128 117 
3 119 118 129 
3 119 129 120 
3 112 121 130 
3 112 130 118 
3 99 114 131 
3 131 122 99 
3 109 115 124 
3 132 125 123 
3 133 132 123 
3 123 126 133 
3 126 134 133 
3 134 117 135 
3 126 117 134 
3 117 128 135 
3 118 136 129 
3 137 138 120 
3 120 138 127 
3 136 118 130 
3 122 139 113 
3 115 140 124 
3 115 125 140 
3 125 141 140 
3 141 125 132 
3 135 142 134 
3 142 135 143 
3 136 137 129 
3 129 137 120 
3 127 138 144 
3 127 144 128 
3 128 145 135 
3 144 145 128 
3 135 145 143 
3 145 146 143 
3 130 121 147 
3 113 148 121 
3 131 139 122 
3 133 149 132 
3 133 134 150 
3 134 142 150 
3 138 137 151 
3 144 138 151 
3 144 151 145 
3 145 152 146 
3 139 153 113 
3 153 148 113 
3 147 121 148 
3 133 150 149 
3 154 143 155 
3 142 143 154 
3 156 145 151 
3 143 146 157 
3 157 155 143 
3 130 158 136 
3 152 145 156 
3 146 152 157 
3 132 159 141 
3 150 142 160 
3 142 154 160 
3 161 162 136 
3 137 136 162 
3 151 137 162 
3 151 163 156 
3 152 164 157 
3 130 147 158 
3 153 147 148 
3 141 165 140 
3 150 166 149 
3 150 160 166 
3 154 155 167 
3 163 151 162 
3 155 157 167 
3 156 168 152 
3 152 168 169 
3 170 158 147 
3 141 159 165 
3 149 166 171 
3 162 172 163 
3 173 167 157 
3 174 161 136 
3 163 175 156 
3 157 164 173 
3 136 158 174 
3 132 176 159 
3 132 149 176 
3 167 173 177 
3 174 178 161 
3 165 159 176 
3 149 171 179 
3 154 180 160 
3 154 167 180 
3 167 177 180 
3 161 178 181 
3 161 181 162 
3 162 181 172 
3 163 172 175 
3 158 170 182 
3 182 174 158 
3 149 179 176 
3 160 183 166 
3 160 180 183 
3 177 173 184 
3 166 183 185 
3 177 183 180 
3 182 178 174 
3 179 171 186 
3 171 185 186 
3 171 166 185 
3 183 187 185 
3 183 188 187 
3 183 177 188 
3 189 184 190 
3 177 184 189 
3 190 184 191 
3 178 192 181 
3 177 189 188 
3 193 185 187 
3 187 188 194 
3 185 193 186 
3 189 195 188 
3 189 190 195 
3 187 194 193 
3 195 190 196 
3 194 197 193 
3 188 198 194 
3 188 195 198 
3 186 193 199 
3 194 198 197 
3 193 200 199 
3 201 186 199 
3 200 193 197 
3 199 200 202 
3 201 199 202 
3 200 197 203 
3 197 198 203 
3 203 198 204 
3 198 195 205 
3 195 206 205 
3 200 203 207 
3 204 198 205 
3 202 209 208 
3 202 200 209 
3 200 210 209 
3 204 205 211 
3 210 200 207 
3 203 204 212 
3 204 211 212 
3 205 213 211 
3 205 206 213 
3 210 207 215 
3 208 209 216 
3 209 210 217 
3 207 203 215 
3 215 203 212 
3 213 218 211 
3 213 214 218 
3 220 216 209 
3 209 217 220 
3 210 221 217 
3 210 215 221 
3 217 221 222 
3 217 222 220 
3 215 212 221 
3 211 218 223 
3 223 218 224 
3 218 219 224 
3 219 225 224 
3 226 221 212 
3 212 211 226 
3 211 223 226 
3 219 227 225 
3 226 222 221 
3 226 223 228 
3 225 229 224 
3 229 225 230 
3 225 227 230 
3 224 231 223 
3 224 229 231 
3 222 226 232 
3 232 226 228 
3 222 233 220 
3 223 234 228 
3 223 231 234 
3 231 229 235 
3 229 230 235 
3 233 222 232 
3 232 228 236 
3 231 237 234 
3 231 235 237 
3 237 235 238 
3 233 232 239 
3 232 236 239 
3 234 240 228 
3 234 237 240 
3 239 236 241 
3 228 242 236 
3 228 240 242 
3 237 244 240 
3 237 238 244 
3 236 242 241 
3 240 246 242 
3 247 238 248 
3 244 238 247 
3 238 243 248 
3 243 245 248 
3 239 241 250 
3 240 251 246 
3 240 244 251 
3 244 252 251 
3 244 247 252 
3 248 245 253 
3 239 250 249 
3 241 242 255 
3 255 242 246 
3 250 241 256 
3 257 241 255 
3 255 246 251 
3 247 248 258 
3 258 248 253 
3 245 259 253 
3 252 247 260 
3 247 258 260 
3 241 257 256 
3 260 251 252 
3 261 260 262 
3 260 258 262 
3 258 253 262 
3 257 255 263 
3 255 264 263 
3 255 251 264 
3 251 265 264 
3 251 260 265 
3 260 261 265 
3 253 266 262 
3 259 254 266 
3 253 259 266 
3 257 263 256 
3 250 256 268 
3 261 262 269 
3 254 267 266 
3 265 261 270 
3 269 262 271 
3 262 266 272 
3 262 272 271 
3 266 267 273 
3 266 273 272 
3 274 250 268 
3 268 256 263 
3 275 264 265 
3 265 270 275 
3 261 269 270 
3 264 276 263 
3 264 275 276 
3 270 277 275 
3 277 270 278 
3 270 269 278 
3 272 273 279 
3 272 279 271 
3 263 276 280 
3 275 281 276 
3 278 269 282 
3 269 283 282 
3 271 283 269 
3 271 279 283 
3 267 284 273 
3 268 285 274 
3 263 280 268 
3 275 277 281 
3 273 284 286 
3 282 283 287 
3 273 286 279 
3 285 268 288 
3 288 268 280 
3 276 289 280 
3 281 277 290 
3 277 291 290 
3 291 277 292 
3 277 278 292 
3 292 278 293 
3 278 282 293 
3 282 287 293 
3 289 276 294 
3 276 281 294 
3 294 281 290 
3 286 295 279 
3 279 295 296 
3 279 296 283 
3 286 297 295 
3 297 286 284 
3 288 280 289 
3 291 292 298 
3 298 292 299 
3 292 300 299 
3 293 300 292 
3 283 301 287 
3 293 287 300 
3 288 302 285 
3 288 289 302 
3 290 303 294 
3 290 291 303 
3 283 296 301 
3 287 301 300 
3 297 304 295 
3 305 289 294 
3 306 303 291 
3 306 298 307 
3 291 298 306 
3 307 298 299 
3 296 308 301 
3 289 310 302 
3 310 289 305 
3 305 294 311 
3 306 307 312 
3 294 303 311 
3 303 314 311 
3 303 306 314 
3 314 306 315 
3 306 312 315 
3 307 316 312 
3 307 299 316 
3 317 318 300 
3 300 318 299 
3 301 308 317 
3 317 300 301 
3 295 304 319 
3 304 309 319 
3 302 310 313 
3 299 318 316 
3 296 295 319 
3 296 319 308 
3 317 320 318 
3 317 308 320 
3 310 305 321 
3 305 322 321 
3 305 311 322 
3 311 323 322 
3 311 314 323 
3 314 324 323 
3 314 315 324 
3 315 312 325 
3 312 316 325 
3 310 326 313 
3 310 321 326 
3 324 315 327 
3 315 325 327 
3 316 318 325 
3 328 308 319 
3 318 320 325 
3 328 329 308 
3 321 322 330 
3 331 323 324 
3 324 327 331 
3 326 321 332 
3 331 327 333 
3 325 334 327 
3 325 320 334 
3 308 329 320 
3 321 335 332 
3 321 330 335 
3 322 336 330 
3 322 323 336 
3 336 323 337 
3 337 323 331 
3 333 327 338 
3 334 338 327 
3 320 340 334 
3 320 329 340 
3 332 335 341 
3 335 330 342 
3 330 336 342 
3 331 333 343 
3 333 338 343 
3 338 334 344 
3 328 339 345 
3 329 328 345 
3 337 346 336 
3 337 331 346 
3 334 347 344 
3 335 342 348 
3 336 349 342 
3 336 346 349 
3 346 331 343 
3 334 340 347 
3 345 340 329 
3 335 348 341 
3 343 338 350 
3 346 343 350 
3 350 338 352 
3 338 344 352 
3 342 353 348 
3 342 349 353 
3 344 347 354 
3 347 340 355 
3 341 356 351 
3 341 348 356 
3 349 357 353 
3 349 346 357 
3 350 352 358 
3 344 354 352 
3 356 348 359 
3 348 353 359 
3 360 357 346 
3 346 350 360 
3 360 350 358 
3 361 354 347 
3 361 347 355 
3 356 362 351 
3 358 352 363 
3 352 354 363 
3 353 364 359 
3 353 357 364 
3 357 360 365 
3 365 360 366 
3 360 358 366 
3 357 365 364 
3 366 358 363 
3 354 367 363 
3 356 359 362 
3 359 364 368 
3 354 361 369 
3 354 369 367 
3 359 371 362 
3 359 368 371 
3 365 372 364 
3 372 365 373 
3 365 366 373 
3 363 367 374 
3 370 362 371 
3 363 374 366 
3 367 369 375 
3 368 364 372 
3 366 374 373 
3 367 376 374 
3 372 373 377 
3 367 375 376 
3 370 371 378 
3 371 368 379 
3 368 372 379 
3 377 373 380 
3 380 373 381 
3 373 374 381 
3 374 382 381 
3 376 382 374 
3 376 383 382 
3 372 384 379 
3 384 372 377 
3 376 375 383 
3 380 381 385 
3 380 385 386 
3 371 379 387 
3 388 384 377 
3 377 380 388 
3 388 380 386 
3 381 382 389 
3 381 389 385 
3 390 389 383 
3 389 382 383 
3 378 371 387 
3 379 391 387 
3 379 384 391 
3 384 392 391 
3 384 388 392 
3 386 385 394 
3 385 389 394 
3 378 396 393 
3 378 387 396 
3 388 386 397 
3 397 386 398 
3 386 394 398 
3 389 390 399 
3 389 399 394 
3 387 391 400 
3 400 391 401 
3 391 392 401 
3 402 388 397 
3 394 403 398 
3 387 400 396 
3 392 388 404 
3 388 402 404 
3 393 405 395 
3 396 405 393 
3 392 406 401 
3 406 392 404 
3 402 398 407 
3 397 398 402 
3 403 394 408 
3 394 399 408 
3 396 400 409 
3 398 403 407 
3 403 410 411 
3 403 408 410 
3 395 405 412 
3 396 409 405 
3 400 413 409 
3 400 401 413 
3 404 402 414 
3 414 407 415 
3 402 407 414 
3 407 403 411 
3 407 411 415 
3 406 416 401 
3 406 417 416 
3 404 417 406 
3 417 404 414 
3 415 411 418 
3 413 401 416 
3 420 417 414 
3 414 415 420 
3 411 410 421 
3 410 419 421 
3 405 422 412 
3 405 409 422 
3 413 416 423 
3 417 424 416 
3 418 411 425 
3 421 425 411 
3 421 419 426 
3 422 409 423 
3 413 423 409 
3 417 420 424 
3 427 420 415 
3 415 418 427 
3 425 421 428 
3 426 428 421 
3 422 423 429 
3 424 430 416 
3 424 420 431 
3 420 427 431 
3 418 425 427 
3 432 428 433 
3 425 428 432 
3 428 434 433 
3 428 426 435 
3 435 434 428 
3 416 436 423 
3 416 430 436 
3 430 424 437 
3 424 431 437 
3 431 427 438 
3 427 425 432 
3 439 433 434 
3 440 439 434 
3 440 434 435 
3 440 435 441 
3 438 432 442 
3 427 432 438 
3 432 433 442 
3 433 439 442 
3 443 442 439 
3 443 439 444 
3 439 440 445 
3 444 439 445 
3 445 440 441 
3 445 441 446 
3 423 447 429 
3 423 436 447 
3 436 430 437 
3 431 438 448 
3 442 449 438 
3 449 442 450 
3 442 443 450 
3 451 450 443 
3 452 443 444 
3 451 443 452 
3 452 444 453 
3 453 454 452 
3 445 453 444 
3 453 445 455 
3 446 455 445 
3 437 456 436 
3 431 457 437 
3 457 431 448 
3 438 449 448 
3 450 451 449 
3 452 454 451 
3 429 447 458 
3 436 459 447 
3 456 459 436 
3 437 457 456 
3 448 460 457 
3 448 449 460 
3 449 461 460 
3 449 451 461 
3 451 462 461 
3 462 451 463 
3 451 454 463 
3 463 454 464 
3 459 465 447 
3 456 466 459 
3 456 467 466 
3 457 467 456 
3 457 460 467 
3 460 468 467 
3 461 468 460 
3 461 469 468 
3 461 462 469 
3 470 462 463 
3 463 464 471 
3 459 466 465 
3 469 462 472 
3 462 473 472 
3 462 470 473 
3 470 463 474 
3 463 471 474 
3 447 475 458 
3 447 465 475 
3 476 475 465 
3 466 476 465 
3 466 477 476 
3 467 477 466 
3 467 478 477 
3 468 478 467 
3 468 479 478 
3 469 479 468 
3 479 469 472 
3 470 474 473 
3 474 471 480 
3 458 475 481 
3 476 482 475 
3 477 483 476 
3 484 479 472 
3 485 484 472 
3 473 485 472 
3 474 486 473 
3 486 485 473 
3 474 480 486 
3 476 483 482 
3 478 487 477 
3 478 488 487 
3 479 488 478 
3 479 484 488 
3 485 489 484 
3 490 485 486 
3 480 491 486 
3 475 482 481 
3 477 487 483 
3 484 492 488 
3 489 492 484 
3 485 493 489 
3 490 493 485 
3 494 493 490 
3 490 486 495 
3 486 491 495 
3 496 495 491 
3 487 497 483 
3 487 498 497 
3 488 498 487 
3 498 488 492 
3 489 499 492 
3 493 499 489 
3 500 494 490 
3 495 500 490 
3 496 500 495 
3 483 501 482 
3 483 497 501 
3 492 502 498 
3 492 499 502 
3 494 499 493 
3 500 496 503 
3 497 498 504 
3 498 502 504 
3 505 502 499 
3 494 505 499 
3 506 505 494 
3 507 506 494 
3 508 507 494 
3 500 508 494 
3 503 509 508 
3 500 503 508 
3 502 511 504 
3 505 511 502 
3 505 506 511 
3 512 511 506 
3 506 507 512 
3 508 513 507 
3 509 513 508 
3 510 513 509 
3 507 514 512 
3 507 515 514 
3 507 513 515 
3 513 516 515 
3 513 510 516 
